<svg width="16" height="16" viewBox="0 0 16 16" fill="none" xmlns="http://www.w3.org/2000/svg">
<path fill-rule="evenodd" clip-rule="evenodd" d="M8 14C11.3137 14 14 11.3137 14 8C14 4.68629 11.3137 2 8 2C4.68629 2 2 4.68629 2 8C2 11.3137 4.68629 14 8 14ZM8 15C11.866 15 15 11.866 15 8C15 4.13401 11.866 1 8 1C4.13401 1 1 4.13401 1 8C1 11.866 4.13401 15 8 15Z" fill="#007B1B"/>
<path fill-rule="evenodd" clip-rule="evenodd" d="M12.5293 5.13842L8.0293 11.6384C7.86051 11.8822 7.59224 12.0385 7.29691 12.0652C7.00159 12.0918 6.70967 11.986 6.5 11.7763L3 8.27632L4.41421 6.8621L7.06695 9.51484L10.8849 4L12.5293 5.13842Z" fill="#007B1B"/>
</svg>
