<svg width="16" height="16" viewBox="0 0 16 16" fill="none" xmlns="http://www.w3.org/2000/svg">
<path fill-rule="evenodd" clip-rule="evenodd" d="M8 14C11.3137 14 14 11.3137 14 8C14 4.68629 11.3137 2 8 2C4.68629 2 2 4.68629 2 8C2 11.3137 4.68629 14 8 14ZM8 15C11.866 15 15 11.866 15 8C15 4.13401 11.866 1 8 1C4.13401 1 1 4.13401 1 8C1 11.866 4.13401 15 8 15Z" fill="#9F2B11"/>
<path fill-rule="evenodd" clip-rule="evenodd" d="M8.00001 6.58579L10.7929 3.79289L12.2071 5.20711L9.41423 8L12.2071 10.7929L10.7929 12.2071L8.00001 9.41421L5.20712 12.2071L3.79291 10.7929L6.5858 8L3.79291 5.20711L5.20712 3.79289L8.00001 6.58579Z" fill="#9F2B11"/>
</svg>
