<svg width="32" height="32" viewBox="0 0 32 32" fill="none" xmlns="http://www.w3.org/2000/svg">
<path fill-rule="evenodd" clip-rule="evenodd" d="M24.3848 22.2635C24.7753 22.654 24.7753 23.2871 24.3848 23.6777L23.6777 24.3848C23.2871 24.7753 22.654 24.7753 22.2635 24.3848L15.5459 17.6673L8.82843 24.3848C8.43791 24.7753 7.80473 24.7753 7.41421 24.3848L6.70711 23.6777C6.31658 23.2871 6.31658 22.654 6.70711 22.2635L13.4246 15.5459L6.70711 8.82843C6.31659 8.43791 6.31659 7.80473 6.70711 7.41421L7.41421 6.70711C7.80474 6.31658 8.43791 6.31658 8.82843 6.70711L15.5459 13.4246L22.2635 6.70711C22.654 6.31659 23.2871 6.31659 23.6777 6.70711L24.3848 7.41422C24.7753 7.80474 24.7753 8.43791 24.3848 8.82843L17.6673 15.5459L24.3848 22.2635Z" fill="#C4C4C4"/>
</svg>
